<?xml version="1.0" encoding="UTF-8"?>
<svg width="24px" height="24px" viewBox="0 0 24 24" version="1.1" xmlns="http://www.w3.org/2000/svg" xmlns:xlink="http://www.w3.org/1999/xlink">
    <!-- Generator: sketchtool 50.2 (55047) - http://www.bohemiancoding.com/sketch -->
    <title>5CDB7970-54A9-4BEB-9A7C-F9513060E0E3</title>
    <desc>Created with sketchtool.</desc>
    <defs></defs>
    <g id="ExpressBuy" stroke="none" stroke-width="1" fill="none" fill-rule="evenodd">
        <g id="1.1---express-buy---low-amount---has-wallet" transform="translate(-1096.000000, -145.000000)" fill="#15A735" fill-rule="nonzero">
            <g id="icons/icon-ssl" transform="translate(1096.000000, 145.000000)">
                <g id="icon-ssl">
                    <path d="M17.85639,8.39844617 L16.657444,8.39844617 C16.6758893,7.74139845 16.602108,5.64594895 15.2555995,4.26082131 C14.4440053,3.42619312 13.3557312,3 12.0092227,3 C10.6627141,3 9.57444005,3.42619312 8.76284585,4.26082131 C7.43478261,5.64594895 7.36100132,7.7236404 7.36100132,8.39844617 L6.16205534,8.39844617 C5.51646904,8.39844617 5,8.89567148 5,9.51720311 L5,17.8812431 C5,18.5027747 5.51646904,19 6.16205534,19 L17.8379447,19 C18.483531,19 19,18.5027747 19,17.8812431 L19,9.51720311 C19,8.89567148 18.483531,8.39844617 17.85639,8.39844617 Z M9.90645586,5.29078801 C10.4044796,4.77580466 11.1054018,4.50943396 12.0092227,4.50943396 C12.9130435,4.50943396 13.5955204,4.75804661 14.1119895,5.29078801 C15.0711462,6.28523862 15.1080369,7.97225305 15.0895916,8.39844617 L8.92885375,8.39844617 C8.91040843,7.97225305 8.94729908,6.26748058 9.90645586,5.29078801 Z M13.2819499,15.9278579 L12.1198946,15.9278579 L11.8985507,15.9278579 L10.7364954,15.9278579 L11.3083004,13.5837958 C10.9025033,13.3529412 10.6258235,12.9267481 10.6258235,12.4472808 C10.6258235,11.7192009 11.2529644,11.1154273 12.0092227,11.1154273 C12.7654809,11.1154273 13.3926219,11.7192009 13.3926219,12.4472808 C13.3926219,12.9267481 13.115942,13.3529412 12.7101449,13.5837958 L13.2819499,15.9278579 Z" id="Shape"></path>
                </g>
            </g>
        </g>
    </g>
</svg>