<svg width="56" height="32" viewBox="0 0 56 32" fill="none" xmlns="http://www.w3.org/2000/svg">
<path fill-rule="evenodd" clip-rule="evenodd" d="M18.4796 20.913L18.4539 20.9219L18.4539 20.9219C17.996 21.0807 17.6038 21.2167 17.1664 21.3079C15.9191 21.6897 14.6718 22.0757 13.4225 22.4624C11.783 22.9699 10.1402 23.4784 8.48988 23.9794C8.22411 24.0672 7.96881 24.1394 7.71656 24.2108L7.71651 24.2108L7.71641 24.2108C7.43452 24.2906 7.15644 24.3692 6.87183 24.4673C6.66078 24.537 6.56698 24.4673 6.49663 24.2814C6.19188 23.457 5.88713 22.6268 5.58238 21.7966L5.58208 21.7958C5.27723 20.9653 4.97238 20.1348 4.66753 19.3101C4.50338 18.9152 4.57373 18.8687 4.97238 18.8687H7.34083C7.55188 18.8687 7.64568 18.799 7.64568 18.5667C7.64568 17.9627 7.64568 17.3819 7.62223 16.7779C7.62223 16.5689 7.69258 16.4759 7.92708 16.4759C8.65403 16.4992 9.40443 16.4527 10.1079 16.2669C10.999 16.0113 11.8198 15.5467 12.195 14.6175C12.664 13.5024 12.3591 12.1086 11.0459 11.5046C10.3893 11.2026 9.70928 11.04 9.00578 11.0167C8.12037 10.9161 7.26192 10.9311 6.40262 10.9462H6.40262C5.87364 10.9555 5.34434 10.9647 4.80823 10.947C4.55028 10.947 4.55028 11.1097 4.55028 11.249V17.9627C4.55028 17.9833 4.55375 18.0097 4.55761 18.039L4.55761 18.0391C4.57112 18.1417 4.58936 18.2802 4.47993 18.3344C4.35522 18.352 4.32525 18.2356 4.29749 18.1277L4.29749 18.1277C4.28871 18.0936 4.28015 18.0603 4.26888 18.0324C3.08854 14.8887 1.94013 11.7766 0.784135 8.64402C0.539184 7.98023 0.293891 7.31551 0.0478823 6.64938C-0.0444907 6.35197 -0.0231539 6.34745 0.29106 6.28082L0.305832 6.27769C0.74889 6.24776 1.1833 6.23068 1.61835 6.21358L1.61835 6.21358H1.61835C2.19645 6.19086 2.77566 6.16809 3.37778 6.11507C4.82328 5.99851 6.25674 5.94163 7.69541 5.88454L7.69544 5.88454C8.26393 5.86198 8.83324 5.83939 9.40443 5.81307C10.1668 5.77874 10.9291 5.73314 11.6943 5.68738L11.6943 5.68738C12.4825 5.64023 13.2737 5.5929 14.071 5.55754C15.5134 5.4945 16.9174 5.41245 18.3524 5.32859L18.8079 5.302C20.2618 5.20908 21.7626 5.13938 23.193 5.09292C23.3454 5.08131 23.5096 5.06388 23.6737 5.04646C23.8379 5.02904 24.002 5.01162 24.1545 5C24.3186 5 24.3421 5.02323 24.4124 5.16261C24.5921 5.55872 24.7718 5.95398 24.9514 6.34887L24.9515 6.34917C25.7091 8.01536 26.4637 9.6751 27.203 11.3652C27.5629 12.1469 27.9147 12.9368 28.268 13.73C28.5131 14.2803 28.7589 14.8322 29.0086 15.3841C29.1024 15.5932 29.079 15.7558 28.9148 15.8719C28.2793 16.5212 27.6942 17.2038 27.1168 17.8774C27.0125 17.9991 26.9084 18.1206 26.8043 18.2415C26.7105 18.3344 26.5933 18.4505 26.4291 18.497C25.7149 18.719 25.0007 18.9492 24.2915 19.1779L24.2912 19.178C23.8129 19.3322 23.3369 19.4856 22.8647 19.6353C22.6805 19.7037 22.5642 19.6378 22.4047 19.5475L22.3957 19.5424C22.1612 19.3914 21.9384 19.2288 21.7157 19.0662C21.4929 18.9035 21.2701 18.7409 21.0356 18.5899C20.8715 18.497 20.848 18.3344 20.848 18.195V16.987C20.848 16.8385 20.848 16.763 20.8118 16.7357C20.7743 16.7075 20.6981 16.7307 20.5432 16.7779C19.8866 16.987 19.23 17.1729 18.5499 17.1496C17.823 17.1264 17.096 16.9406 16.627 16.3598C16.0642 15.7093 16.0173 15.0124 16.3222 14.2458C16.5801 13.5256 17.1664 13.1772 17.8699 13.0378C18.7375 12.852 19.5348 13.061 20.3321 13.4327C20.4813 13.5123 20.5575 13.553 20.5964 13.5301C20.637 13.5063 20.637 13.4134 20.637 13.2236V11.5743C20.637 11.4117 20.637 11.3187 20.4494 11.2723C18.6906 10.8077 16.9084 10.8077 15.1966 11.5743C12.406 12.8752 12.4998 15.8719 13.6489 17.3819C14.3289 18.2415 15.2669 18.7293 16.3222 18.9152C16.9319 19.0081 17.354 19.2172 17.6588 19.7747C17.7775 19.9931 17.982 20.26 18.2103 20.558L18.2104 20.558C18.2978 20.6721 18.3887 20.7908 18.4796 20.913ZM24.9987 15.0821V11.2491C24.9987 11.04 24.9283 10.9471 24.6938 10.9471H22.2081C21.9971 10.9471 21.9033 11.0168 21.9033 11.2491V18.59C21.9033 18.799 21.9736 18.892 22.2081 18.892H24.2483C24.4359 18.892 24.6469 18.892 24.8345 18.8687C24.9283 18.8455 25.0221 18.799 25.0221 18.6596C24.9793 17.8685 24.9886 17.0946 24.9971 16.3796C25.0026 15.9189 25.0078 15.4827 24.9987 15.0821ZM23.4739 6.85841C24.5761 6.81195 25.303 7.5321 25.303 8.60071C25.3734 9.83193 24.3181 10.3198 23.4739 10.343C22.3483 10.343 21.551 9.62285 21.551 8.60071C21.5979 7.57856 22.3483 6.85841 23.4739 6.85841Z" fill="black"/>
<path d="M37.5703 10.7416C37.1286 11.142 36.7798 11.5188 36.4311 11.8722C34.9664 13.3325 33.6413 14.8871 32.3394 16.5123C29.4101 20.2103 26.8528 24.2145 24.4582 28.2422C24.3652 28.4307 24.2722 28.4542 24.1559 28.2422C22.3426 25.3451 20.2502 22.5657 18.2043 19.8334C18.0416 19.645 18.0184 19.5272 18.2276 19.3388C18.5298 19.0326 18.8321 18.7735 19.111 18.4673C19.2738 18.3024 19.3668 18.3024 19.5063 18.4437C20.9709 19.5037 22.4821 20.5165 23.9699 21.5529C24.3419 21.812 24.3419 21.812 24.5744 21.4587C26.318 19.1504 28.2709 17.0305 30.34 15.0284C31.9442 13.4974 33.6645 12.037 35.5012 10.8593C35.6639 10.7651 35.8034 10.6709 35.9894 10.6709C36.4776 10.6709 37.0123 10.6709 37.5703 10.7416Z" fill="#0A94F1"/>
<path d="M7.4649 13.8471C7.4649 13.5722 7.4649 13.3223 7.4649 13.0225C7.4649 12.9226 7.4649 12.7976 7.61955 12.7976C7.99513 12.7976 8.3707 12.7976 8.74628 12.9975C9.32069 13.3223 9.38697 14.2219 8.83465 14.6466C8.45907 14.9714 8.01722 14.9215 7.59746 14.9215C7.44281 14.9215 7.44281 14.8215 7.44281 14.6966C7.4649 14.4467 7.4649 14.1469 7.4649 13.8471Z" fill="black"/>
<path fill-rule="evenodd" clip-rule="evenodd" d="M39.7583 16.5498C39.7166 16.5079 39.6957 16.4591 39.6957 16.4033V10.9722C39.6957 10.9108 39.7152 10.8592 39.7541 10.8173C39.793 10.7755 39.8431 10.7546 39.9042 10.7546H42.0975C42.9204 10.7546 43.5597 10.9512 44.0156 11.3446C44.4715 11.7379 44.7106 12.3027 44.7329 13.0392C44.7384 13.201 44.7412 13.4158 44.7412 13.6836C44.7412 13.9514 44.7384 14.1634 44.7329 14.3196C44.6773 15.8482 43.8127 16.6126 42.1392 16.6126H39.9042C39.8486 16.6126 39.8 16.5916 39.7583 16.5498ZM42.0978 15.3573C42.4481 15.3573 42.7066 15.2736 42.8734 15.1063C43.0402 14.9389 43.1292 14.6711 43.1403 14.3029C43.1514 14.1411 43.157 13.9319 43.157 13.6752C43.157 13.4186 43.1514 13.2122 43.1403 13.056C43.1292 12.6989 43.0333 12.4353 42.8526 12.2651C42.6719 12.095 42.4064 12.0099 42.0562 12.0099H41.2639V15.3573H42.0978ZM46.5257 16.462C46.1477 16.3058 45.8613 16.0993 45.6667 15.8427C45.4722 15.5861 45.3693 15.3071 45.3582 15.0058C45.3582 14.9556 45.3762 14.9138 45.4124 14.8803C45.4485 14.8468 45.4916 14.8301 45.5416 14.8301H46.6508C46.7175 14.8301 46.7717 14.8413 46.8134 14.8636C46.8551 14.8859 46.901 14.9249 46.951 14.9807C47.0233 15.1146 47.1359 15.2248 47.2888 15.3113C47.4417 15.3978 47.646 15.441 47.9018 15.441C48.202 15.441 48.4327 15.395 48.5939 15.3029C48.7552 15.2109 48.8358 15.0839 48.8358 14.9222C48.8358 14.805 48.7941 14.7088 48.7107 14.6334C48.6273 14.5581 48.4939 14.4912 48.3104 14.4326C48.1269 14.374 47.8628 14.3085 47.5181 14.2359C46.8454 14.102 46.3423 13.8984 46.0087 13.625C45.6751 13.3517 45.5083 12.9611 45.5083 12.4534C45.5083 12.1075 45.6042 11.7993 45.796 11.5287C45.9878 11.2581 46.2602 11.0475 46.6133 10.8969C46.9663 10.7462 47.3764 10.6709 47.8434 10.6709C48.3326 10.6709 48.7566 10.756 49.1152 10.9262C49.4738 11.0963 49.749 11.3083 49.9408 11.5622C50.1326 11.816 50.2341 12.0657 50.2452 12.3112C50.2452 12.3614 50.2285 12.4046 50.1951 12.4409C50.1618 12.4771 50.1201 12.4953 50.07 12.4953H48.9025C48.7802 12.4953 48.6857 12.4451 48.619 12.3446C48.5856 12.2275 48.4994 12.1285 48.3604 12.0476C48.2214 11.9667 48.0491 11.9262 47.8434 11.9262C47.6099 11.9262 47.4292 11.9681 47.3013 12.0517C47.1734 12.1354 47.1095 12.2582 47.1095 12.42C47.1095 12.5817 47.1929 12.7087 47.3597 12.8007C47.5265 12.8928 47.8378 12.9862 48.2937 13.0811C48.8163 13.1759 49.2319 13.2945 49.5405 13.4367C49.849 13.579 50.077 13.7631 50.2243 13.9891C50.3717 14.215 50.4453 14.5009 50.4453 14.8468C50.4453 15.2262 50.3369 15.5554 50.1201 15.8343C49.9033 16.1133 49.603 16.3267 49.2194 16.4745C48.8358 16.6224 48.3966 16.6963 47.9018 16.6963C47.3625 16.6963 46.9038 16.6182 46.5257 16.462ZM52.0798 16.462C51.7018 16.3058 51.4154 16.0993 51.2208 15.8427C51.0263 15.5861 50.9234 15.3071 50.9123 15.0058C50.9123 14.9556 50.9304 14.9138 50.9665 14.8803C51.0026 14.8468 51.0457 14.8301 51.0958 14.8301H52.2049C52.2716 14.8301 52.3258 14.8413 52.3675 14.8636C52.4092 14.8859 52.4551 14.9249 52.5051 14.9807C52.5774 15.1146 52.69 15.2248 52.8429 15.3113C52.9958 15.3978 53.2001 15.441 53.4559 15.441C53.7561 15.441 53.9868 15.395 54.148 15.3029C54.3093 15.2109 54.3899 15.0839 54.3899 14.9222C54.3899 14.805 54.3482 14.7088 54.2648 14.6334C54.1814 14.5581 54.048 14.4912 53.8645 14.4326C53.681 14.374 53.4169 14.3085 53.0722 14.2359C52.3995 14.102 51.8964 13.8984 51.5628 13.625C51.2292 13.3517 51.0624 12.9611 51.0624 12.4534C51.0624 12.1075 51.1583 11.7993 51.3501 11.5287C51.5419 11.2581 51.8143 11.0475 52.1674 10.8969C52.5204 10.7462 52.9305 10.6709 53.3975 10.6709C53.8867 10.6709 54.3107 10.756 54.6693 10.9262C55.0279 11.0963 55.3031 11.3083 55.4949 11.5622C55.6867 11.816 55.7882 12.0657 55.7993 12.3112C55.7993 12.3614 55.7826 12.4046 55.7492 12.4409C55.7159 12.4771 55.6742 12.4953 55.6242 12.4953H54.4566C54.3343 12.4953 54.2398 12.4451 54.1731 12.3446C54.1397 12.2275 54.0535 12.1285 53.9145 12.0476C53.7755 11.9667 53.6032 11.9262 53.3975 11.9262C53.164 11.9262 52.9833 11.9681 52.8554 12.0517C52.7275 12.1354 52.6636 12.2582 52.6636 12.42C52.6636 12.5817 52.747 12.7087 52.9138 12.8007C53.0806 12.8928 53.3919 12.9862 53.8478 13.0811C54.3704 13.1759 54.786 13.2945 55.0946 13.4367C55.4032 13.579 55.6311 13.7631 55.7784 13.9891C55.9258 14.215 55.9994 14.5009 55.9994 14.8468C55.9994 15.2262 55.891 15.5554 55.6742 15.8343C55.4574 16.1133 55.1571 16.3267 54.7735 16.4745C54.3899 16.6224 53.9507 16.6963 53.4559 16.6963C52.9166 16.6963 52.4579 16.6182 52.0798 16.462Z" fill="black"/>
<path fill-rule="evenodd" clip-rule="evenodd" d="M39.608 20.352C39.4439 20.19 39.3564 19.9597 39.3455 19.6611C39.3434 19.5991 39.3423 19.498 39.3423 19.3579C39.3423 19.2154 39.3434 19.112 39.3455 19.0477C39.3564 18.7537 39.4444 18.5245 39.6096 18.3603C39.7748 18.196 40.0063 18.1139 40.304 18.1139C40.4975 18.1139 40.6659 18.1489 40.8093 18.219C40.9528 18.2891 41.0642 18.385 41.1435 18.5067C41.2228 18.6285 41.2647 18.7652 41.269 18.9168V18.9237C41.269 18.942 41.262 18.9576 41.2478 18.9702C41.2337 18.9828 41.2179 18.9891 41.2006 18.9891H40.8843C40.8582 18.9891 40.8387 18.9828 40.8256 18.9702C40.8126 18.9576 40.8017 18.9352 40.793 18.903C40.7604 18.7606 40.7039 18.6601 40.6235 18.6015C40.5431 18.5429 40.4366 18.5136 40.304 18.5136C39.9932 18.5136 39.8313 18.6974 39.8183 19.065C39.8161 19.127 39.815 19.2223 39.815 19.351C39.815 19.4796 39.8161 19.5772 39.8183 19.6439C39.8313 20.0114 39.9932 20.1952 40.304 20.1952C40.4344 20.1952 40.5404 20.1659 40.6219 20.1073C40.7034 20.0487 40.7604 19.9482 40.793 19.8058C40.8017 19.7737 40.8126 19.7513 40.8256 19.7386C40.8387 19.726 40.8582 19.7197 40.8843 19.7197H41.2006C41.2201 19.7197 41.237 19.7266 41.2511 19.7403C41.2652 19.7541 41.2712 19.7714 41.269 19.792C41.2647 19.9437 41.2228 20.0803 41.1435 20.2021C41.0642 20.3238 40.9528 20.4198 40.8093 20.4898C40.6659 20.5599 40.4975 20.5949 40.304 20.5949C40.0041 20.5949 39.7721 20.5139 39.608 20.352ZM41.6785 20.5364C41.6633 20.5203 41.6557 20.5008 41.6557 20.4778V18.2346C41.6557 18.2093 41.6628 18.1886 41.6769 18.1725C41.691 18.1565 41.71 18.1484 41.734 18.1484H43.1717C43.1956 18.1484 43.2151 18.1565 43.2304 18.1725C43.2456 18.1886 43.2532 18.2093 43.2532 18.2346V18.4654C43.2532 18.4907 43.2456 18.5108 43.2304 18.5257C43.2151 18.5407 43.1956 18.5481 43.1717 18.5481H42.1023V19.1512H43.0999C43.1239 19.1512 43.1434 19.1592 43.1586 19.1753C43.1738 19.1914 43.1814 19.2121 43.1814 19.2373V19.4544C43.1814 19.4797 43.1738 19.4998 43.1586 19.5147C43.1434 19.5296 43.1239 19.5371 43.0999 19.5371H42.1023V20.1608H43.1977C43.2217 20.1608 43.2412 20.1683 43.2564 20.1832C43.2716 20.1981 43.2793 20.2182 43.2793 20.2435V20.4778C43.2793 20.5031 43.2716 20.5232 43.2564 20.5381C43.2412 20.5531 43.2217 20.5605 43.1977 20.5605H41.734C41.7122 20.5605 41.6937 20.5525 41.6785 20.5364ZM43.7102 20.5364C43.695 20.5203 43.6874 20.5008 43.6874 20.4778V18.2346C43.6874 18.2093 43.6944 18.1886 43.7086 18.1725C43.7227 18.1565 43.7417 18.1484 43.7656 18.1484H44.61C44.8773 18.1484 45.0865 18.2139 45.2376 18.3448C45.3886 18.4758 45.4641 18.6619 45.4641 18.9031C45.4641 19.0708 45.4261 19.2115 45.35 19.3252C45.274 19.4389 45.1675 19.521 45.0306 19.5716L45.5033 20.4503C45.5098 20.4641 45.513 20.4767 45.513 20.4882C45.513 20.5088 45.506 20.5261 45.4919 20.5399C45.4777 20.5536 45.462 20.5605 45.4446 20.5605H45.1447C45.1099 20.5605 45.0827 20.5519 45.0632 20.5347C45.0436 20.5175 45.0262 20.4951 45.011 20.4675L44.5937 19.6508H44.1471V20.4778C44.1471 20.5008 44.1394 20.5203 44.1242 20.5364C44.109 20.5525 44.0895 20.5605 44.0656 20.5605H43.7656C43.7439 20.5605 43.7254 20.5525 43.7102 20.5364ZM44.6004 19.2578C44.7308 19.2578 44.8286 19.2274 44.8938 19.1665C44.959 19.1056 44.9916 19.0166 44.9916 18.8995C44.9916 18.7823 44.959 18.6921 44.8938 18.629C44.8286 18.5658 44.7308 18.5342 44.6004 18.5342H44.1472V19.2578H44.6004ZM46.3834 20.5364C46.3682 20.5203 46.3606 20.5008 46.3606 20.4778V18.5792H45.7575C45.7358 18.5792 45.7173 18.5711 45.7021 18.555C45.6869 18.539 45.6793 18.5183 45.6793 18.493V18.2346C45.6793 18.2093 45.6863 18.1886 45.7004 18.1725C45.7146 18.1565 45.7336 18.1484 45.7575 18.1484H47.4234C47.4473 18.1484 47.4669 18.1565 47.4821 18.1725C47.4973 18.1886 47.5049 18.2093 47.5049 18.2346V18.493C47.5049 18.5183 47.4973 18.539 47.4821 18.555C47.4669 18.5711 47.4473 18.5792 47.4234 18.5792H46.8236V20.4778C46.8236 20.5008 46.8165 20.5203 46.8024 20.5364C46.7882 20.5525 46.7692 20.5605 46.7453 20.5605H46.4389C46.4171 20.5605 46.3987 20.5525 46.3834 20.5364ZM47.8568 20.5364C47.8416 20.5203 47.834 20.5008 47.834 20.4778V18.2311C47.834 18.2059 47.8416 18.1858 47.8568 18.1708C47.872 18.1559 47.8905 18.1484 47.9122 18.1484H48.2252C48.2491 18.1484 48.2681 18.1559 48.2823 18.1708C48.2964 18.1858 48.3034 18.2059 48.3034 18.2311V20.4778C48.3034 20.5008 48.2964 20.5203 48.2823 20.5364C48.2681 20.5525 48.2491 20.5605 48.2252 20.5605H47.9122C47.8905 20.5605 47.872 20.5525 47.8568 20.5364ZM48.8354 20.5364C48.8202 20.5203 48.8126 20.5008 48.8126 20.4778V18.2346C48.8126 18.2093 48.8197 18.1886 48.8338 18.1725C48.8479 18.1565 48.8669 18.1484 48.8908 18.1484H50.309C50.3329 18.1484 50.3525 18.1565 50.3677 18.1725C50.3829 18.1886 50.3905 18.2093 50.3905 18.2346V18.4827C50.3905 18.5056 50.3829 18.5252 50.3677 18.5413C50.3525 18.5573 50.3329 18.5654 50.309 18.5654H49.2658V19.2132H50.2438C50.2677 19.2132 50.2873 19.2212 50.3025 19.2373C50.3177 19.2534 50.3253 19.2729 50.3253 19.2959V19.544C50.3253 19.567 50.3177 19.5865 50.3025 19.6026C50.2873 19.6187 50.2677 19.6267 50.2438 19.6267H49.2658V20.4778C49.2658 20.5008 49.2582 20.5203 49.2429 20.5364C49.2277 20.5525 49.2082 20.5605 49.1843 20.5605H48.8908C48.8691 20.5605 48.8506 20.5525 48.8354 20.5364ZM50.7971 20.5364C50.7819 20.5203 50.7743 20.5008 50.7743 20.4778V18.2311C50.7743 18.2059 50.7819 18.1858 50.7971 18.1708C50.8123 18.1559 50.8308 18.1484 50.8525 18.1484H51.1655C51.1894 18.1484 51.2084 18.1559 51.2225 18.1708C51.2367 18.1858 51.2437 18.2059 51.2437 18.2311V20.4778C51.2437 20.5008 51.2367 20.5203 51.2225 20.5364C51.2084 20.5525 51.1894 20.5605 51.1655 20.5605H50.8525C50.8308 20.5605 50.8123 20.5525 50.7971 20.5364ZM51.7757 20.5364C51.7605 20.5203 51.7529 20.5008 51.7529 20.4778V18.2346C51.7529 18.2093 51.7599 18.1886 51.7741 18.1725C51.7882 18.1565 51.8072 18.1484 51.8311 18.1484H53.2688C53.2928 18.1484 53.3123 18.1565 53.3275 18.1725C53.3427 18.1886 53.3503 18.2093 53.3503 18.2346V18.4654C53.3503 18.4907 53.3427 18.5108 53.3275 18.5257C53.3123 18.5407 53.2928 18.5481 53.2688 18.5481H52.1995V19.1512H53.1971C53.221 19.1512 53.2406 19.1592 53.2558 19.1753C53.271 19.1914 53.2786 19.2121 53.2786 19.2373V19.4544C53.2786 19.4797 53.271 19.4998 53.2558 19.5147C53.2406 19.5296 53.221 19.5371 53.1971 19.5371H52.1995V20.1608H53.2949C53.3188 20.1608 53.3384 20.1683 53.3536 20.1832C53.3688 20.1981 53.3764 20.2182 53.3764 20.2435V20.4778C53.3764 20.5031 53.3688 20.5232 53.3536 20.5381C53.3384 20.5531 53.3188 20.5605 53.2949 20.5605H51.8311C51.8094 20.5605 51.7909 20.5525 51.7757 20.5364ZM53.8066 20.5364C53.7914 20.5203 53.7838 20.5008 53.7838 20.4778V18.2346C53.7838 18.2093 53.7909 18.1886 53.805 18.1725C53.8191 18.1565 53.8382 18.1484 53.8621 18.1484H54.6575C55.2987 18.1484 55.6258 18.4608 55.6388 19.0857C55.6432 19.2189 55.6454 19.3085 55.6454 19.3545C55.6454 19.3981 55.6432 19.4866 55.6388 19.6198C55.6301 19.9414 55.5481 20.1786 55.3927 20.3314C55.2373 20.4842 54.9977 20.5605 54.6738 20.5605H53.8621C53.8403 20.5605 53.8219 20.5525 53.8066 20.5364ZM54.6577 20.1607C54.8381 20.1607 54.9685 20.1182 55.0489 20.0332C55.1293 19.9482 55.1717 19.8069 55.176 19.6093C55.1804 19.4715 55.1826 19.3854 55.1826 19.3509C55.1826 19.3141 55.1804 19.2292 55.176 19.0959C55.1717 18.9075 55.1271 18.7691 55.0424 18.6807C54.9576 18.5922 54.824 18.548 54.6414 18.548H54.2437V20.1607H54.6577Z" fill="black"/>
</svg>
