<?xml version="1.0" encoding="UTF-8"?>
<svg width="56px" height="32px" viewBox="0 0 56 32" version="1.1" xmlns="http://www.w3.org/2000/svg" xmlns:xlink="http://www.w3.org/1999/xlink">
    <!-- Generator: Sketch 47.1 (45422) - http://www.bohemiancoding.com/sketch -->
    <title>logo-visaOnWhite</title>
    <desc>Created with Sketch.</desc>
    <defs></defs>
    <g id="BuyFlow" stroke="none" stroke-width="1" fill="none" fill-rule="evenodd">
        <g id="purchase-btc-verification-process-edit-amount" transform="translate(-966.000000, -141.000000)" fill="#1A1F71">
            <g id="Page-1-Copy" transform="translate(966.000000, 141.000000)">
                <path d="M27.7029232,10.2501491 L24.7786804,23.8281546 L21.2426995,23.8281546 L24.1669423,10.2501491 L27.7029232,10.2501491 Z M42.6132001,19.0286582 L44.4887489,13.942326 L45.5710549,19.0286582 L42.610175,19.0286582 L42.6132001,19.0286582 Z M46.5827756,23.8181487 L49.8666667,23.8181487 L47.0163703,10.2401432 L43.9912915,10.2401432 C43.3264465,10.2318049 42.7244558,10.6290392 42.475391,11.2407331 L37.1310852,23.8148134 L40.8455458,23.8148134 L41.5678674,21.7736099 L46.115569,21.7736099 L46.5827756,23.8181487 Z M37.3495631,19.3855352 C37.3495631,15.8034233 32.3682668,15.5899641 32.40524,14.0123673 C32.40524,13.5120723 32.8761439,13.0117773 33.9211406,12.8650241 C35.119744,12.7529581 36.3267504,12.9614143 37.4167871,13.4687134 L38.0218028,10.6103615 C36.962353,10.2061231 35.8363515,9.99933455 34.7009386,10.0000016 C31.1985697,10.0000016 28.7452309,11.8610989 28.7079215,14.4793092 C28.6709484,16.4504714 30.475912,17.524438 31.813669,18.1681508 C33.1514261,18.8118637 33.6556059,19.2788056 33.6556059,19.8358007 C33.6556059,20.7329964 32.5363267,21.1699206 31.524606,21.1699206 C30.2540729,21.2046078 28.9966485,20.9077661 27.8780416,20.3094133 L27.2289942,23.2811654 C28.4796962,23.7791257 29.8177893,24.0232696 31.1649577,23.9982549 C34.8824434,24.0349432 37.3028425,22.2071989 37.3394795,19.3755293 L37.3495631,19.3855352 Z M22.6510417,10.2501491 L16.9104506,23.8281546 L13.1489333,23.8281546 L10.3322489,12.975089 C10.1507441,12.3080291 9.996129,12.0778934 9.50236893,11.7943929 C8.3898122,11.2627461 7.21238433,10.8771855 6,10.6470498 L6.09041624,10.2501491 L12.1207426,10.2501491 C12.9348249,10.254485 13.6245429,10.8481683 13.7438654,11.6476397 L15.2227928,19.4922648 L18.9201113,10.2501491 L22.6745701,10.2501491 L22.6510417,10.2501491 Z" id="Fill-1"></path>
            </g>
        </g>
    </g>
</svg>