<?xml version="1.0" encoding="UTF-8"?>
<svg width="56px" height="32px" viewBox="0 0 56 32" version="1.1" xmlns="http://www.w3.org/2000/svg" xmlns:xlink="http://www.w3.org/1999/xlink">
    <!-- Generator: Sketch 47.1 (45422) - http://www.bohemiancoding.com/sketch -->
    <title>logo-masterCardOnWhite</title>
    <desc>Created with Sketch.</desc>
    <defs>
        <path d="M30.3995687,3.25739252 C30.3965126,3.29286779 30.3955958,3.32898807 30.396207,3.36478585 C30.4084314,3.88820742 30.820392,4.30197813 31.316395,4.28940054 C31.79834,4.28811053 32.1971595,3.89401246 32.2292484,3.38639352 C32.2628653,2.85329688 31.8808544,2.39211829 31.3753775,2.35664302 C30.8702062,2.32116774 30.4331857,2.72429588 30.3995687,3.25739252 Z M32.7833171,3.25739252 L32.7985975,3.25739252 L32.7985975,4.80540455 L32.2026604,4.80540455 L32.2026604,4.41872404 C31.9755931,4.72316641 31.6220038,4.89151272 31.2552732,4.86990505 C30.4114875,4.86990505 29.7272294,4.14814444 29.7272294,3.25739252 C29.7272294,2.3666406 30.4114875,1.64487999 31.2552732,1.64487999 C31.6220038,1.62327232 31.9755931,1.79161863 32.2026604,2.0963835 L32.2026604,0.483870968 L32.7833171,0.483870968 L32.7833171,3.25739252 Z M24.5013196,3.25739252 C24.5013196,3.83789703 24.8527697,4.32165079 25.4181459,4.28940054 C25.9000909,4.28811053 26.2989103,3.89401246 26.3309993,3.38639352 C26.3646162,2.85329688 25.9822997,2.39211829 25.477434,2.35664302 C24.9719571,2.32116774 24.5352422,2.72429588 24.5013196,3.25739252 Z M26.8545071,3.25739252 L26.8545071,4.80540455 L26.2738504,4.80540455 L26.2738504,4.41872404 C26.0467831,4.72316641 25.6931938,4.89151272 25.3264632,4.86990505 C24.4826775,4.86990505 23.7984194,4.14814444 23.7984194,3.25739252 C23.7984194,2.3666406 24.4826775,1.64487999 25.3264632,1.64487999 C25.6931938,1.62327232 26.0467831,1.79161863 26.2738504,2.0963835 L26.2738504,1.70938049 L26.8545071,1.70938049 L26.8545071,3.25739252 Z M33.791826,4.64415329 L33.8835086,4.64415329 L33.8835086,4.57997529 L33.791826,4.57997529 L33.791826,4.64415329 Z M33.8529477,4.54740254 L33.8682282,4.53127742 L33.7154238,4.53127742 L33.7154238,4.82185217 L33.7612651,4.82185217 L33.7612651,4.74122655 L33.791826,4.74122655 L33.8835086,4.8376548 L33.9751912,4.8376548 L33.8835086,4.74122655 C33.9067349,4.73767902 33.9281275,4.72639143 33.9446304,4.70865379 C33.9504369,4.70413876 33.9556323,4.69865622 33.9599108,4.69252867 C33.9852763,4.65705339 33.9782473,4.6064205 33.9446304,4.57997529 C33.9201817,4.5548201 33.8865647,4.54321001 33.8529477,4.54740254 Z M33.8223868,4.9024778 C33.8560038,4.90634783 33.8896208,4.89473774 33.9140695,4.86990505 C33.946464,4.86700252 33.9724408,4.83958981 33.9751912,4.80540455 L34.036313,4.74122655 C34.036313,4.70865379 34.0668739,4.67640354 34.0668739,4.64415329 C34.0708468,4.60867802 34.0598449,4.57320274 34.036313,4.54740254 C34.0335625,4.51321728 34.0078914,4.48612707 33.9751912,4.48290204 L33.9140695,4.41872404 C33.8835086,4.41872404 33.8529477,4.38615129 33.8223868,4.38615129 C33.7887699,4.38195876 33.7551529,4.39356885 33.7307042,4.41872404 C33.6983097,4.42130406 33.6723329,4.44839427 33.6695825,4.48290204 L33.6084607,4.54740254 C33.6084607,4.57997529 33.5778998,4.61190304 33.5778998,4.64415329 C33.5739269,4.67962857 33.5849288,4.71542635 33.6084607,4.74122655 C33.6112112,4.77541181 33.6371879,4.80250202 33.6695825,4.80540455 L33.7307042,4.86990505 C33.7551529,4.89473774 33.7887699,4.90634783 33.8223868,4.9024778 Z M33.8223868,4.35390104 C33.8654777,4.3490635 33.9088741,4.36067359 33.9446304,4.38615129 C34.0140035,4.41646652 34.0690131,4.47419447 34.0974347,4.54740254 C34.1114927,4.58932787 34.1215778,4.6325432 34.1279956,4.67640354 C34.1325797,4.7218764 34.1218834,4.76767175 34.0974347,4.80540455 C34.0668739,4.8376548 34.0668739,4.86990505 34.036313,4.9024778 C34.0140035,4.93440555 33.9813034,4.95730323 33.9446304,4.9666558 C33.9049012,4.98149091 33.8639496,4.9921335 33.8223868,4.99890605 C33.779296,5.00374359 33.7358996,4.992456 33.7001433,4.9666558 C33.6695825,4.93440555 33.6390216,4.93440555 33.6084607,4.9024778 C33.5778998,4.87829011 33.5565072,4.84442735 33.547339,4.80540455 C33.5335866,4.76347922 33.5231959,4.72026388 33.5167781,4.67640354 C33.512194,4.63093069 33.5231959,4.58513533 33.547339,4.54740254 C33.5778998,4.51515229 33.5778998,4.48290204 33.6084607,4.45065179 C33.6310758,4.41872404 33.6634703,4.39550386 33.7001433,4.38615129 C33.7307042,4.38615129 33.791826,4.35390104 33.8223868,4.35390104 Z M29.1160119,1.64487999 C28.7945115,1.63810744 28.4928756,1.80935627 28.3214291,2.0963835 L28.3214291,1.70938049 L27.7407725,1.70938049 L27.7407725,4.80540455 L28.3214291,4.80540455 L28.3214291,3.06389101 C28.3214291,2.54788701 28.5659161,2.2253845 28.9632075,2.2253845 C29.0976754,2.23086704 29.2309208,2.25279721 29.3604989,2.289885 L29.5438642,1.70938049 C29.4087851,1.67326021 29.2706499,1.65165254 29.1312923,1.64487999 L29.1160119,1.64487999 Z M6.53152435,3.25739252 C6.52846826,3.29286779 6.52755143,3.32898807 6.52816265,3.36478585 C6.540387,3.88820742 6.95234761,4.30197813 7.44835064,4.28940054 C7.93029565,4.28811053 8.32911509,3.89401246 8.36120401,3.38639352 C8.39482097,2.85329688 8.01281002,2.39211829 7.50733313,2.35664302 C7.00216184,2.32116774 6.56544692,2.72429588 6.53152435,3.25739252 Z M8.9152727,3.25739252 L8.93055313,3.25739252 L8.93055313,4.80540455 L8.34989648,4.80540455 L8.34989648,4.41872404 C8.12282917,4.72316641 7.76923984,4.89151272 7.40250932,4.86990505 C6.55872353,4.86990505 5.87446551,4.14814444 5.87446551,3.25739252 C5.87446551,2.3666406 6.55872353,1.64487999 7.40250932,1.64487999 C7.76923984,1.62327232 8.12282917,1.79161863 8.34989648,2.0963835 L8.34989648,1.70938049 L8.9152727,1.70938049 L8.9152727,3.25739252 Z M16.8305396,2.2253845 C16.4011593,2.20151931 16.0332064,2.546597 16.005396,2.99939051 L17.5945616,2.99939051 L17.5945616,2.96069021 L17.5945616,2.9590777 C17.5756138,2.5340194 17.233332,2.20538934 16.8305396,2.2253845 Z M16.8305396,1.64487999 C17.6556833,1.64487999 18.2057791,2.289885 18.2210595,3.25739252 L18.2210595,3.51539452 L16.0512373,3.51539452 C16.1004403,3.98786069 16.4876466,4.33971093 16.9375027,4.32165079 C17.2480012,4.31294322 17.5478034,4.20006734 17.7932073,3.99914828 L18.098816,4.45065179 C17.7592847,4.73122897 17.3381558,4.87925762 16.9069418,4.86990505 L16.7358009,4.86990505 L16.7327448,4.86990505 C15.9412181,4.81443462 15.3419194,4.09267401 15.3941785,3.25739252 C15.3941785,2.289885 15.9748351,1.64487999 16.8305396,1.64487999 Z M20.9562579,3.25739252 C20.9073605,4.09686654 21.5124659,4.81862715 22.3076599,4.86990505 C22.3666424,4.87377508 22.4256249,4.87377508 22.4843018,4.86990505 C22.8602005,4.89054521 23.2302927,4.76444673 23.5233715,4.51515229 L23.2177628,4.03139853 C23.0016974,4.21748248 22.7324561,4.31971577 22.4537409,4.32165079 C21.9137302,4.27650044 21.5106322,3.77791156 21.5531119,3.20804963 C21.591313,2.70075319 21.9730183,2.29762506 22.4537409,2.25763475 C22.7324561,2.25956976 23.0016974,2.36212556 23.2177628,2.54788701 L23.5233715,2.06413325 C23.2302927,1.81483881 22.8602005,1.68874033 22.4843018,1.70938049 C21.7337266,1.61424225 21.0519135,2.17958914 20.9617589,2.9716553 C20.9510626,3.06647103 20.9492289,3.16225428 20.9562579,3.25739252 Z M12.063043,1.96738249 C11.7054807,1.7364707 11.2901584,1.62423983 10.8711688,1.64487999 C10.1377077,1.64487999 9.6792946,1.99995525 9.6792946,2.61238751 C9.6792946,3.12871402 10.0154642,3.41864377 10.6572426,3.51539452 L10.9628514,3.54764477 C11.299021,3.61246778 11.5129472,3.74114628 11.5129472,3.90239753 C11.5129472,4.12814928 11.2684602,4.28940054 10.810047,4.28940054 C10.4595138,4.2971406 10.1160095,4.18394222 9.83209898,3.96689803 L9.52649022,4.45065179 C9.90391704,4.70704128 10.3461329,4.83636479 10.7947666,4.82185217 C11.6504711,4.82185217 12.1088843,4.40227641 12.1088843,3.8217719 C12.1088843,3.24126739 11.7421538,3.01551564 11.1003753,2.91876489 L10.7947666,2.88683714 C10.5197187,2.85426439 10.2752317,2.75751363 10.2752317,2.56433463 C10.2752317,2.37051063 10.5197187,2.17700912 10.8558883,2.17700912 C11.1755551,2.19184424 11.4884985,2.27988742 11.7727146,2.43501113 L12.063043,1.96738249 Z M20.2839187,1.64487999 C19.9624182,1.63810744 19.6607824,1.80935627 19.4893359,2.0963835 L19.4893359,1.70938049 L18.9086792,1.70938049 L18.9086792,4.80540455 L19.4893359,4.80540455 L19.4893359,3.06389101 C19.4893359,2.54788701 19.7338229,2.2253845 20.1311143,2.2253845 C20.2652765,2.23086704 20.3988276,2.25279721 20.5284057,2.289885 L20.7117709,1.70938049 C20.5718021,1.6722927 20.4284716,1.65068503 20.2839187,1.64487999 Z M14.8440827,1.74163074 L13.774452,1.74163074 L13.774452,0.806373474 L13.1937954,0.806373474 L13.1937954,1.74163074 L12.5825778,1.74163074 L12.5825778,2.289885 L13.1937954,2.289885 L13.1937954,3.74114628 C13.1937954,4.45065179 13.4382824,4.86990505 14.1717434,4.86990505 C14.450153,4.8641 14.7230616,4.7866994 14.9663262,4.64415329 L14.7829609,4.09622154 C14.6182378,4.20490488 14.4272323,4.26069781 14.2328652,4.25747279 C13.9975464,4.27779045 13.7906493,4.09299651 13.7713959,3.84434708 C13.7686455,3.80983931 13.7695623,3.77533154 13.774452,3.74114628 L13.774452,2.24183213 L14.8440827,2.24183213 L14.8440827,1.72550562 L14.8440827,1.74163074 Z M5.3090893,4.80540455 L5.3090893,2.87038951 C5.36257083,2.2515072 4.93044004,1.70389795 4.34397682,1.64746001 C4.28896725,1.64197747 4.23334645,1.64100996 4.17833688,1.64487999 C3.76576505,1.62746485 3.373669,1.83451146 3.13926708,2.19313425 C2.93542604,1.83257645 2.55861043,1.62165981 2.16131904,1.64487999 C1.81261944,1.62875486 1.48011711,1.79871368 1.27505363,2.0963835 L1.27505363,1.70938049 L0.709677419,1.70938049 L0.709677419,4.80540455 L1.29033407,4.80540455 L1.29033407,3.03164076 C1.24540958,2.63560769 1.51312286,2.27601739 1.88841042,2.22860952 C1.9333349,2.22280448 1.978565,2.22151447 2.0237951,2.2253845 C2.45164737,2.2253845 2.69613438,2.51563675 2.69613438,3.03164076 L2.69613438,4.80540455 L3.27679103,4.80540455 L3.27679103,3.03164076 C3.23186654,2.63560769 3.49957981,2.27601739 3.87486737,2.22860952 C3.91979186,2.22280448 3.96502196,2.22151447 4.01025206,2.2253845 C4.43810432,2.2253845 4.68259133,2.51563675 4.68259133,3.03164076 L4.68259133,4.80540455 L5.32436973,4.80540455 L5.3090893,4.80540455 Z" id="path-1"></path>
        <polygon id="path-3" points="-2 5 34.1290323 5 34.1290323 -23 -2 -23"></polygon>
    </defs>
    <g id="BuyFlow" stroke="none" stroke-width="1" fill="none" fill-rule="evenodd">
        <g id="purchase-btc-verification-process-edit-amount" transform="translate(-1038.000000, -141.000000)">
            <g id="Page-1-Copy-2" transform="translate(1038.000000, 141.000000)">
                <g id="Group-2" transform="translate(11.000000, 25.000000)">
                    <mask id="mask-2" fill="white">
                        <use xlink:href="#path-1"></use>
                    </mask>
                    <use id="Fill-1" fill="#000000" xlink:href="#path-1"></use>
                    <mask id="mask-4" fill="white">
                        <use xlink:href="#path-3"></use>
                    </mask>
                    <g id="Clip-4"></g>
                    <polygon id="Fill-3" fill="#FF5F00" mask="url(#mask-4)" points="10.6451613 -3.63000059 21.483871 -3.63000059 21.483871 -20.6900001 10.6451613 -20.6900001"></polygon>
                    <path d="M11.8160582,-12.1609688 C11.8169886,-15.4820777 13.3820956,-18.6204367 16.0645161,-20.6812644 C11.2175529,-24.38112 4.19922448,-23.5658211 0.38832675,-18.8600889 C-3.42257098,-14.1546577 -2.58280281,-7.3405287 2.26416045,-3.6406731 C6.31353002,-0.54988316 12.0154567,-0.54988316 16.0645161,-3.6406731 C13.3820956,-5.7015008 11.8169886,-8.83985988 11.8160582,-12.1609688" id="Fill-5" fill="#EB001B" mask="url(#mask-4)"></path>
                    <path d="M34.1290323,-12.1610371 C34.1222037,-6.16854388 29.1138011,-1.31595657 22.9426893,-1.32258743 C20.4490411,-1.32530006 18.0277131,-2.13788238 16.0645161,-3.63133394 C20.915863,-7.35697567 21.7383882,-14.195507 17.9020064,-18.9064349 C17.3628644,-19.5686171 16.7464361,-20.1672034 16.0645161,-20.6907403 C20.9226915,-24.3862417 27.9461257,-23.557685 31.7514688,-18.8401262 C33.2894358,-16.9337527 34.1262388,-14.5828097 34.1290323,-12.1610371" id="Fill-7" fill="#F79E1B" mask="url(#mask-4)"></path>
                </g>
            </g>
        </g>
    </g>
</svg>